<?xml version="1.0" encoding="iso-8859-1"?>
<!-- Generator: Adobe Illustrator 24.0.3, SVG Export Plug-In . SVG Version: 6.00 Build 0)  -->
<svg version="1.1" id="Layer_1" xmlns="http://www.w3.org/2000/svg" xmlns:xlink="http://www.w3.org/1999/xlink" x="0px" y="0px"
	 viewBox="0 0 100.17 96" style="enable-background:new 0 0 100.17 96;" xml:space="preserve">
<title>94 Cloudy Windy</title>
<path d="M93,65c-0.3,0-0.7-0.1-1-0.1c-2.4,0-4.4,1.7-4.9,4C87,69.1,87,69.3,87,69.6c0,0.1,0,0.2,0,0.3c0,2.8,2.2,5,5,5
	c0.3,0,0.7,0,1-0.1c0.4-0.1,0.8-0.2,1.1-0.4c0.3-0.2,0.6-0.5,0.6-0.9c0-0.6-0.4-1-1-1c-0.1,0-0.3,0-0.4,0.1c-0.1,0-0.2,0.1-0.3,0.1
	c-0.4,0.2-0.9,0.2-1.3,0.2c-1.3-0.2-2.3-1.2-2.6-2.4c-0.1-0.5-0.1-1,0.1-1.6c0.4-1.1,1.4-1.9,2.5-2H92c0.3,0,0.7,0,1,0.1
	c2.9,0.5,5,3,5,5.9c0,1.7-0.7,3.4-2,4.5c-0.8,0.7-1.9,1.2-3,1.4c-0.3,0.1-0.7,0.1-1,0.1H65c-0.6,0-1,0.4-1,1s0.4,1,1,1h27
	c4.4,0,8-3.6,8-8C100,68.9,97,65.5,93,65z"/>
<path d="M99,84.9H65c-0.6,0-1,0.4-1,1s0.4,1,1,1h34c0.6,0,1-0.4,1-1S99.6,84.9,99,84.9z"/>
<path d="M62,80h-8.2c-0.2-6.8-5.9-12.1-12.7-11.9c-2.5,0.1-4.9,0.9-6.9,2.4c-0.1-0.5-0.1-1-0.1-1.5c0-0.4,0-0.7,0.1-1.1
	c0.1-0.7,0.2-1.3,0.4-2c1.4-4.6,5.6-7.8,10.5-7.8h2.7v-2c0-10.2,8.2-18.4,18.4-18.4s18.4,8.2,18.4,18.4v2h2.7c2.4,0,4.7,0.8,6.6,2.2
	c0.5,0.4,1,0.9,1.5,1.3c0.7,0.7,1.3,1.6,1.7,2.5c1.1,0.6,2.1,1.5,2.9,2.5c-0.5-2.5-1.6-4.7-3.4-6.5c6.1-8.5,4.2-20.4-4.3-26.5
	C88.9,31.3,85,30,81,30h-1C80,13.4,66.6,0,50,0S20,13.4,20,30h-1C8.5,30,0,38.5,0,49s8.5,19,19,19h13c0,0.4,0,0.7,0,1.1
	c0,1,0.1,2.1,0.4,3.1c-2,2.3-3.2,5.2-3.2,8.2h-0.4c-4.3,0-7.8,3.5-7.8,7.8s3.5,7.8,7.8,7.8h25.4c4.3,0,7.8-3.5,7.8-7.8
	c0-2.1-0.8-4.1-2.3-5.5c-0.3-0.3-0.5-0.5-0.8-0.7h4C62.4,81.5,62,80.8,62,80z M32.4,66H19C9.6,66,2,58.4,2,49s7.6-17,17-17h3v-2
	C22,14.5,34.5,2,50,2s28,12.5,28,28v2h3c9.4,0,17,7.6,17,17c0,3.5-1.1,6.9-3.1,9.8c-2.2-1.7-5-2.6-7.8-2.6h-0.7
	c0-11.3-9.1-20.4-20.4-20.4s-20.4,9.1-20.4,20.4h-0.7C39,56.2,33.8,60.2,32.4,66z M60,88.2c0,3.2-2.6,5.8-5.8,5.8H28.8
	c-3.2,0-5.8-2.6-5.8-5.8s2.6-5.8,5.8-5.8h2.4v-2c0-2.2,0.7-4.3,1.9-6c0.4-0.6,0.9-1.2,1.5-1.7l0,0c4.2-3.8,10.8-3.4,14.5,0.8
	c1.6,1.8,2.5,4,2.6,6.4c0,0.1,0,0.3,0,0.4v2h2.4C57.4,82.4,60,85,60,88.2z"/>
</svg>
